<svg id="svg" version="1.1" xmlns="http://www.w3.org/2000/svg" xmlns:xlink="http://www.w3.org/1999/xlink" width="400" height="400" viewBox="0, 0, 400,400"><g id="svgg"><path id="path0" d="M131.845 94.227 C 131.528 95.053,131.535 115.916,131.852 117.100 L 132.093 118.000 145.847 118.000 C 159.294 118.000,159.619 118.019,160.442 118.842 C 161.429 119.829,161.243 121.882,160.095 122.686 C 159.713 122.954,159.220 123.354,159.000 123.575 C 158.780 123.797,158.393 124.181,158.140 124.429 C 157.233 125.318,156.074 126.487,155.740 126.848 C 153.767 128.982,145.883 136.400,145.587 136.400 C 145.374 136.400,145.200 136.607,145.200 136.860 C 145.200 137.113,144.345 138.103,143.300 139.059 C 142.255 140.015,141.220 140.983,141.000 141.210 C 140.780 141.437,140.362 141.842,140.071 142.111 C 139.357 142.772,138.304 143.828,137.719 144.471 C 137.455 144.762,136.960 145.232,136.619 145.516 C 135.986 146.044,135.614 304.529,136.243 306.167 C 136.462 306.740,141.470 306.800,188.856 306.800 C 244.981 306.800,243.549 306.850,244.182 304.857 C 244.324 304.408,244.783 303.933,245.200 303.800 C 245.617 303.667,246.070 303.208,246.206 302.780 C 246.343 302.351,246.619 302.000,246.821 302.000 C 247.023 302.000,247.997 301.145,248.985 300.100 C 251.032 297.936,250.861 298.105,253.036 296.096 C 253.937 295.265,254.888 294.183,255.151 293.692 C 255.413 293.202,255.801 292.800,256.011 292.800 C 256.222 292.800,257.659 291.495,259.205 289.900 C 260.750 288.305,262.172 286.846,262.365 286.657 C 263.704 285.346,266.282 282.757,266.681 282.323 C 266.945 282.035,267.442 281.567,267.784 281.282 C 268.671 280.542,268.538 119.179,267.650 118.883 C 267.348 118.782,266.808 118.379,266.450 117.986 C 265.404 116.836,262.503 113.842,261.928 113.319 C 261.638 113.055,261.180 112.605,260.911 112.319 C 260.225 111.590,259.657 111.020,257.600 108.992 C 256.610 108.016,255.620 107.025,255.400 106.789 C 255.180 106.553,254.219 105.604,253.264 104.680 C 251.059 102.545,250.570 102.055,248.528 99.936 C 247.609 98.981,246.619 97.984,246.328 97.719 C 246.038 97.455,245.580 97.005,245.311 96.719 C 245.042 96.434,244.630 96.020,244.395 95.800 C 244.160 95.580,243.719 95.040,243.416 94.600 C 242.642 93.477,132.274 93.108,131.845 94.227 M238.011 118.659 C 238.555 119.021,239.225 119.595,239.500 119.935 C 239.896 120.425,240.000 137.089,240.000 200.254 L 240.000 279.955 239.035 281.078 L 238.070 282.200 213.097 282.400 L 188.123 282.600 186.462 284.382 C 185.548 285.363,184.800 286.311,184.800 286.491 C 184.800 286.670,184.353 287.021,183.808 287.269 C 183.262 287.518,182.713 288.045,182.587 288.440 C 182.462 288.836,182.017 289.267,181.600 289.400 C 181.183 289.533,180.726 290.003,180.586 290.445 C 180.445 290.887,179.916 291.438,179.409 291.668 C 178.903 291.899,178.292 292.518,178.053 293.044 C 177.813 293.570,177.343 294.000,177.009 294.000 C 176.674 294.000,176.400 294.207,176.400 294.459 C 176.400 294.712,174.780 296.514,172.800 298.464 C 170.820 300.414,169.200 302.163,169.200 302.351 C 169.200 302.826,165.707 304.113,165.224 303.815 C 164.060 303.096,164.004 298.870,164.002 211.126 C 164.000 116.049,163.908 120.132,166.090 118.802 C 167.951 117.667,236.318 117.531,238.011 118.659 " stroke="none" fill="#050404" fill-rule="evenodd"></path><path id="path1" d="M163.600 0.561 C 163.600 0.995,162.724 1.154,159.764 1.261 C 156.481 1.380,155.833 1.518,155.264 2.218 C 154.704 2.909,153.856 3.101,149.842 3.447 C 145.823 3.793,144.980 3.984,144.419 4.677 C 143.900 5.318,143.161 5.535,141.024 5.671 C 138.778 5.814,138.161 6.008,137.547 6.766 C 137.012 7.427,136.209 7.760,134.701 7.944 C 132.920 8.161,132.581 8.337,132.472 9.100 C 132.352 9.945,132.155 10.000,129.247 10.000 C 126.270 10.000,126.116 10.046,125.263 11.200 C 124.537 12.183,124.089 12.400,122.788 12.400 C 121.361 12.400,121.200 12.501,121.200 13.400 C 121.200 14.350,121.085 14.400,118.900 14.405 C 115.794 14.413,114.911 14.705,114.632 15.816 C 114.432 16.613,114.107 16.775,112.498 16.878 C 110.978 16.976,110.521 17.179,110.205 17.900 C 109.988 18.395,109.484 18.800,109.085 18.800 C 107.980 18.800,106.000 19.949,106.000 20.589 C 106.000 20.994,105.392 21.193,103.900 21.279 C 102.169 21.379,101.731 21.558,101.405 22.300 C 101.188 22.795,100.729 23.200,100.385 23.200 C 99.549 23.200,98.800 23.994,98.800 24.880 C 98.800 25.469,98.465 25.600,96.960 25.600 C 95.432 25.600,94.931 25.803,94.000 26.800 C 93.238 27.616,92.496 28.000,91.683 28.000 C 90.768 28.000,90.432 28.217,90.256 28.921 C 90.082 29.613,89.601 29.935,88.312 30.221 C 87.155 30.477,86.475 30.886,86.213 31.482 C 85.989 31.992,85.399 32.414,84.813 32.482 C 84.131 32.561,83.760 32.879,83.678 33.454 C 83.595 34.037,83.181 34.384,82.378 34.544 C 81.447 34.731,81.200 34.992,81.200 35.790 C 81.200 36.593,81.001 36.800,80.226 36.800 C 78.734 36.800,77.200 37.510,77.200 38.200 C 77.200 38.565,76.720 38.916,76.032 39.054 C 75.238 39.212,74.788 39.593,74.625 40.244 C 74.452 40.931,74.105 41.200,73.392 41.200 C 72.601 41.200,72.400 41.402,72.400 42.200 C 72.400 42.999,72.200 43.200,71.405 43.200 C 70.721 43.200,69.677 43.940,68.068 45.564 C 66.779 46.864,65.304 47.989,64.790 48.064 C 64.185 48.152,63.758 48.560,63.583 49.219 C 63.180 50.736,61.462 52.400,60.297 52.400 C 59.573 52.400,59.221 52.664,59.053 53.331 C 58.924 53.844,58.365 54.470,57.810 54.723 C 57.215 54.994,56.800 55.515,56.800 55.991 C 56.800 56.536,56.536 56.800,55.991 56.800 C 55.515 56.800,54.994 57.215,54.723 57.810 C 54.470 58.365,53.844 58.924,53.331 59.053 C 52.664 59.221,52.400 59.573,52.400 60.297 C 52.400 61.462,50.736 63.180,49.219 63.583 C 48.560 63.758,48.152 64.185,48.064 64.790 C 47.989 65.304,46.864 66.779,45.564 68.068 C 43.940 69.677,43.200 70.721,43.200 71.405 C 43.200 72.200,42.999 72.400,42.200 72.400 C 41.402 72.400,41.200 72.601,41.200 73.392 C 41.200 74.105,40.931 74.452,40.244 74.625 C 39.593 74.788,39.212 75.238,39.054 76.032 C 38.916 76.720,38.565 77.200,38.200 77.200 C 37.510 77.200,36.800 78.734,36.800 80.226 C 36.800 81.001,36.593 81.200,35.790 81.200 C 34.992 81.200,34.731 81.447,34.544 82.378 C 34.384 83.181,34.037 83.595,33.454 83.678 C 32.879 83.760,32.561 84.131,32.482 84.813 C 32.414 85.399,31.992 85.989,31.482 86.213 C 30.886 86.475,30.477 87.155,30.221 88.312 C 29.935 89.601,29.613 90.082,28.921 90.256 C 28.217 90.432,28.000 90.768,28.000 91.683 C 28.000 92.496,27.616 93.238,26.800 94.000 C 25.803 94.931,25.600 95.432,25.600 96.960 C 25.600 98.465,25.469 98.800,24.880 98.800 C 23.994 98.800,23.200 99.549,23.200 100.385 C 23.200 100.729,22.795 101.188,22.300 101.405 C 21.558 101.731,21.379 102.169,21.279 103.900 C 21.193 105.392,20.994 106.000,20.589 106.000 C 19.949 106.000,18.800 107.980,18.800 109.085 C 18.800 109.484,18.395 109.988,17.900 110.205 C 17.179 110.521,16.976 110.978,16.878 112.498 C 16.775 114.107,16.613 114.432,15.816 114.632 C 14.705 114.911,14.413 115.794,14.405 118.900 C 14.400 121.085,14.350 121.200,13.400 121.200 C 12.501 121.200,12.400 121.361,12.400 122.788 C 12.400 124.089,12.183 124.537,11.200 125.263 C 10.046 126.116,10.000 126.270,10.000 129.247 C 10.000 132.155,9.945 132.352,9.100 132.472 C 8.337 132.581,8.161 132.920,7.944 134.701 C 7.760 136.209,7.427 137.012,6.766 137.547 C 6.008 138.161,5.814 138.778,5.671 141.024 C 5.535 143.161,5.318 143.900,4.677 144.419 C 3.984 144.980,3.793 145.823,3.447 149.842 C 3.101 153.856,2.909 154.704,2.218 155.264 C 1.518 155.833,1.380 156.481,1.261 159.764 C 1.154 162.724,0.995 163.600,0.561 163.600 C 0.084 163.600,0.000 169.024,0.000 200.000 C 0.000 230.976,0.084 236.400,0.561 236.400 C 0.995 236.400,1.154 237.276,1.261 240.236 C 1.380 243.519,1.518 244.167,2.218 244.736 C 2.909 245.296,3.101 246.144,3.447 250.158 C 3.793 254.177,3.984 255.020,4.677 255.581 C 5.318 256.100,5.535 256.839,5.671 258.976 C 5.814 261.222,6.008 261.839,6.766 262.453 C 7.427 262.988,7.760 263.791,7.944 265.299 C 8.161 267.080,8.337 267.419,9.100 267.528 C 9.945 267.648,10.000 267.845,10.000 270.753 C 10.000 273.730,10.046 273.884,11.200 274.737 C 12.183 275.463,12.400 275.911,12.400 277.212 C 12.400 278.639,12.501 278.800,13.400 278.800 C 14.350 278.800,14.400 278.915,14.405 281.100 C 14.413 284.206,14.705 285.089,15.816 285.368 C 16.613 285.568,16.775 285.893,16.878 287.502 C 16.976 289.022,17.179 289.479,17.900 289.795 C 18.395 290.012,18.800 290.516,18.800 290.915 C 18.800 292.020,19.949 294.000,20.589 294.000 C 20.994 294.000,21.193 294.608,21.279 296.100 C 21.379 297.831,21.558 298.269,22.300 298.595 C 22.795 298.812,23.200 299.271,23.200 299.615 C 23.200 300.451,23.994 301.200,24.880 301.200 C 25.469 301.200,25.600 301.535,25.600 303.040 C 25.600 304.568,25.803 305.069,26.800 306.000 C 27.616 306.762,28.000 307.504,28.000 308.317 C 28.000 309.232,28.217 309.568,28.921 309.744 C 29.613 309.918,29.935 310.399,30.221 311.688 C 30.477 312.845,30.886 313.525,31.482 313.787 C 31.992 314.011,32.414 314.601,32.482 315.187 C 32.561 315.869,32.879 316.240,33.454 316.322 C 34.037 316.405,34.384 316.819,34.544 317.622 C 34.731 318.553,34.992 318.800,35.790 318.800 C 36.593 318.800,36.800 318.999,36.800 319.774 C 36.800 321.266,37.510 322.800,38.200 322.800 C 38.565 322.800,38.916 323.280,39.054 323.968 C 39.212 324.762,39.593 325.212,40.244 325.375 C 40.931 325.548,41.200 325.895,41.200 326.608 C 41.200 327.399,41.402 327.600,42.200 327.600 C 42.999 327.600,43.200 327.800,43.200 328.595 C 43.200 329.279,43.940 330.323,45.564 331.932 C 46.864 333.221,47.989 334.696,48.064 335.210 C 48.152 335.815,48.560 336.242,49.219 336.417 C 50.736 336.820,52.400 338.538,52.400 339.703 C 52.400 340.427,52.664 340.779,53.331 340.947 C 53.844 341.076,54.470 341.635,54.723 342.190 C 54.994 342.785,55.515 343.200,55.991 343.200 C 56.536 343.200,56.800 343.464,56.800 344.009 C 56.800 344.485,57.215 345.006,57.810 345.277 C 58.365 345.530,58.924 346.156,59.053 346.669 C 59.221 347.336,59.573 347.600,60.297 347.600 C 61.462 347.600,63.180 349.264,63.583 350.781 C 63.758 351.440,64.185 351.848,64.790 351.936 C 65.304 352.011,66.779 353.136,68.068 354.436 C 69.677 356.060,70.721 356.800,71.405 356.800 C 72.200 356.800,72.400 357.001,72.400 357.800 C 72.400 358.598,72.601 358.800,73.392 358.800 C 74.105 358.800,74.452 359.069,74.625 359.756 C 74.788 360.407,75.238 360.788,76.032 360.946 C 76.720 361.084,77.200 361.435,77.200 361.800 C 77.200 362.490,78.734 363.200,80.226 363.200 C 81.001 363.200,81.200 363.407,81.200 364.210 C 81.200 365.008,81.447 365.269,82.378 365.456 C 83.181 365.616,83.595 365.963,83.678 366.546 C 83.760 367.121,84.131 367.439,84.813 367.518 C 85.399 367.586,85.989 368.008,86.213 368.518 C 86.475 369.114,87.155 369.523,88.312 369.779 C 89.601 370.065,90.082 370.387,90.256 371.079 C 90.432 371.783,90.768 372.000,91.683 372.000 C 92.496 372.000,93.238 372.384,94.000 373.200 C 94.931 374.197,95.432 374.400,96.960 374.400 C 98.465 374.400,98.800 374.531,98.800 375.120 C 98.800 376.006,99.549 376.800,100.385 376.800 C 100.729 376.800,101.188 377.205,101.405 377.700 C 101.731 378.442,102.169 378.621,103.900 378.721 C 105.392 378.807,106.000 379.006,106.000 379.411 C 106.000 380.051,107.980 381.200,109.085 381.200 C 109.484 381.200,109.988 381.605,110.205 382.100 C 110.521 382.821,110.978 383.024,112.498 383.122 C 114.107 383.225,114.432 383.387,114.632 384.184 C 114.911 385.295,115.794 385.587,118.900 385.595 C 121.085 385.600,121.200 385.650,121.200 386.600 C 121.200 387.499,121.361 387.600,122.788 387.600 C 124.089 387.600,124.537 387.817,125.263 388.800 C 126.116 389.954,126.270 390.000,129.247 390.000 C 132.155 390.000,132.352 390.055,132.472 390.900 C 132.581 391.663,132.920 391.839,134.701 392.056 C 136.209 392.240,137.012 392.573,137.547 393.234 C 138.161 393.992,138.778 394.186,141.024 394.329 C 143.161 394.465,143.900 394.682,144.419 395.323 C 144.980 396.016,145.823 396.207,149.842 396.553 C 153.856 396.899,154.704 397.091,155.264 397.782 C 155.833 398.482,156.481 398.620,159.764 398.739 C 162.724 398.846,163.600 399.005,163.600 399.439 C 163.600 399.916,169.024 400.000,200.000 400.000 C 230.976 400.000,236.400 399.916,236.400 399.439 C 236.400 399.005,237.276 398.846,240.236 398.739 C 243.519 398.620,244.167 398.482,244.736 397.782 C 245.296 397.091,246.144 396.899,250.158 396.553 C 254.177 396.207,255.020 396.016,255.581 395.323 C 256.100 394.682,256.839 394.465,258.976 394.329 C 261.222 394.186,261.839 393.992,262.453 393.234 C 262.988 392.573,263.791 392.240,265.299 392.056 C 267.080 391.839,267.419 391.663,267.528 390.900 C 267.648 390.055,267.845 390.000,270.753 390.000 C 273.730 390.000,273.884 389.954,274.737 388.800 C 275.463 387.817,275.911 387.600,277.212 387.600 C 278.639 387.600,278.800 387.499,278.800 386.600 C 278.800 385.650,278.915 385.600,281.100 385.595 C 284.206 385.587,285.089 385.295,285.368 384.184 C 285.568 383.387,285.893 383.225,287.502 383.122 C 289.022 383.024,289.479 382.821,289.795 382.100 C 290.012 381.605,290.516 381.200,290.915 381.200 C 292.020 381.200,294.000 380.051,294.000 379.411 C 294.000 379.006,294.608 378.807,296.100 378.721 C 297.831 378.621,298.269 378.442,298.595 377.700 C 298.812 377.205,299.271 376.800,299.615 376.800 C 300.451 376.800,301.200 376.006,301.200 375.120 C 301.200 374.531,301.535 374.400,303.040 374.400 C 304.568 374.400,305.069 374.197,306.000 373.200 C 306.762 372.384,307.504 372.000,308.317 372.000 C 309.232 372.000,309.568 371.783,309.744 371.079 C 309.918 370.387,310.399 370.065,311.688 369.779 C 312.845 369.523,313.525 369.114,313.787 368.518 C 314.011 368.008,314.601 367.586,315.187 367.518 C 315.869 367.439,316.240 367.121,316.322 366.546 C 316.405 365.963,316.819 365.616,317.622 365.456 C 318.553 365.269,318.800 365.008,318.800 364.210 C 318.800 363.407,318.999 363.200,319.774 363.200 C 321.266 363.200,322.800 362.490,322.800 361.800 C 322.800 361.435,323.280 361.084,323.968 360.946 C 324.762 360.788,325.212 360.407,325.375 359.756 C 325.548 359.069,325.895 358.800,326.608 358.800 C 327.399 358.800,327.600 358.598,327.600 357.800 C 327.600 357.001,327.800 356.800,328.595 356.800 C 329.279 356.800,330.323 356.060,331.932 354.436 C 333.221 353.136,334.696 352.011,335.210 351.936 C 335.815 351.848,336.242 351.440,336.417 350.781 C 336.820 349.264,338.538 347.600,339.703 347.600 C 340.427 347.600,340.779 347.336,340.947 346.669 C 341.076 346.156,341.635 345.530,342.190 345.277 C 342.785 345.006,343.200 344.485,343.200 344.009 C 343.200 343.464,343.464 343.200,344.009 343.200 C 344.485 343.200,345.006 342.785,345.277 342.190 C 345.530 341.635,346.156 341.076,346.669 340.947 C 347.336 340.779,347.600 340.427,347.600 339.703 C 347.600 338.538,349.264 336.820,350.781 336.417 C 351.440 336.242,351.848 335.815,351.936 335.210 C 352.011 334.696,353.136 333.221,354.436 331.932 C 356.060 330.323,356.800 329.279,356.800 328.595 C 356.800 327.800,357.001 327.600,357.800 327.600 C 358.598 327.600,358.800 327.399,358.800 326.608 C 358.800 325.895,359.069 325.548,359.756 325.375 C 360.407 325.212,360.788 324.762,360.946 323.968 C 361.084 323.280,361.435 322.800,361.800 322.800 C 362.490 322.800,363.200 321.266,363.200 319.774 C 363.200 318.999,363.407 318.800,364.210 318.800 C 365.008 318.800,365.269 318.553,365.456 317.622 C 365.616 316.819,365.963 316.405,366.546 316.322 C 367.121 316.240,367.439 315.869,367.518 315.187 C 367.586 314.601,368.008 314.011,368.518 313.787 C 369.114 313.525,369.523 312.845,369.779 311.688 C 370.065 310.399,370.387 309.918,371.079 309.744 C 371.783 309.568,372.000 309.232,372.000 308.317 C 372.000 307.504,372.384 306.762,373.200 306.000 C 374.197 305.069,374.400 304.568,374.400 303.040 C 374.400 301.535,374.531 301.200,375.120 301.200 C 376.006 301.200,376.800 300.451,376.800 299.615 C 376.800 299.271,377.205 298.812,377.700 298.595 C 378.442 298.269,378.621 297.831,378.721 296.100 C 378.807 294.608,379.006 294.000,379.411 294.000 C 380.051 294.000,381.200 292.020,381.200 290.915 C 381.200 290.516,381.605 290.012,382.100 289.795 C 382.821 289.479,383.024 289.022,383.122 287.502 C 383.225 285.893,383.387 285.568,384.184 285.368 C 385.295 285.089,385.587 284.206,385.595 281.100 C 385.600 278.915,385.650 278.800,386.600 278.800 C 387.499 278.800,387.600 278.639,387.600 277.212 C 387.600 275.911,387.817 275.463,388.800 274.737 C 389.954 273.884,390.000 273.730,390.000 270.753 C 390.000 267.845,390.055 267.648,390.900 267.528 C 391.663 267.419,391.839 267.080,392.056 265.299 C 392.240 263.791,392.573 262.988,393.234 262.453 C 393.992 261.839,394.186 261.222,394.329 258.976 C 394.465 256.839,394.682 256.100,395.323 255.581 C 396.016 255.020,396.207 254.177,396.553 250.158 C 396.899 246.144,397.091 245.296,397.782 244.736 C 398.482 244.167,398.620 243.519,398.739 240.236 C 398.846 237.276,399.005 236.400,399.439 236.400 C 399.916 236.400,400.000 230.976,400.000 200.000 C 400.000 169.024,399.916 163.600,399.439 163.600 C 399.005 163.600,398.846 162.724,398.739 159.764 C 398.620 156.481,398.482 155.833,397.782 155.264 C 397.091 154.704,396.899 153.856,396.553 149.842 C 396.207 145.823,396.016 144.980,395.323 144.419 C 394.682 143.900,394.465 143.161,394.329 141.024 C 394.186 138.778,393.992 138.161,393.234 137.547 C 392.573 137.012,392.240 136.209,392.056 134.701 C 391.839 132.920,391.663 132.581,390.900 132.472 C 390.055 132.352,390.000 132.155,390.000 129.247 C 390.000 126.270,389.954 126.116,388.800 125.263 C 387.817 124.537,387.600 124.089,387.600 122.788 C 387.600 121.361,387.499 121.200,386.600 121.200 C 385.650 121.200,385.600 121.085,385.595 118.900 C 385.587 115.794,385.295 114.911,384.184 114.632 C 383.387 114.432,383.225 114.107,383.122 112.498 C 383.024 110.978,382.821 110.521,382.100 110.205 C 381.605 109.988,381.200 109.484,381.200 109.085 C 381.200 107.980,380.051 106.000,379.411 106.000 C 379.006 106.000,378.807 105.392,378.721 103.900 C 378.621 102.169,378.442 101.731,377.700 101.405 C 377.205 101.188,376.800 100.729,376.800 100.385 C 376.800 99.549,376.006 98.800,375.120 98.800 C 374.531 98.800,374.400 98.465,374.400 96.960 C 374.400 95.432,374.197 94.931,373.200 94.000 C 372.384 93.238,372.000 92.496,372.000 91.683 C 372.000 90.768,371.783 90.432,371.079 90.256 C 370.387 90.082,370.065 89.601,369.779 88.312 C 369.523 87.155,369.114 86.475,368.518 86.213 C 368.008 85.989,367.586 85.399,367.518 84.813 C 367.439 84.131,367.121 83.760,366.546 83.678 C 365.963 83.595,365.616 83.181,365.456 82.378 C 365.269 81.447,365.008 81.200,364.210 81.200 C 363.407 81.200,363.200 81.001,363.200 80.226 C 363.200 78.734,362.490 77.200,361.800 77.200 C 361.435 77.200,361.084 76.720,360.946 76.032 C 360.788 75.238,360.407 74.788,359.756 74.625 C 359.069 74.452,358.800 74.105,358.800 73.392 C 358.800 72.601,358.598 72.400,357.800 72.400 C 357.001 72.400,356.800 72.200,356.800 71.405 C 356.800 70.721,356.060 69.677,354.436 68.068 C 353.136 66.779,352.011 65.304,351.936 64.790 C 351.848 64.185,351.440 63.758,350.781 63.583 C 349.264 63.180,347.600 61.462,347.600 60.297 C 347.600 59.573,347.336 59.221,346.669 59.053 C 346.156 58.924,345.530 58.365,345.277 57.810 C 345.006 57.215,344.485 56.800,344.009 56.800 C 343.464 56.800,343.200 56.536,343.200 55.991 C 343.200 55.515,342.785 54.994,342.190 54.723 C 341.635 54.470,341.076 53.844,340.947 53.331 C 340.779 52.664,340.427 52.400,339.703 52.400 C 338.538 52.400,336.820 50.736,336.417 49.219 C 336.242 48.560,335.815 48.152,335.210 48.064 C 334.696 47.989,333.221 46.864,331.932 45.564 C 330.323 43.940,329.279 43.200,328.595 43.200 C 327.800 43.200,327.600 42.999,327.600 42.200 C 327.600 41.402,327.399 41.200,326.608 41.200 C 325.895 41.200,325.548 40.931,325.375 40.244 C 325.212 39.593,324.762 39.212,323.968 39.054 C 323.280 38.916,322.800 38.565,322.800 38.200 C 322.800 37.510,321.266 36.800,319.774 36.800 C 318.999 36.800,318.800 36.593,318.800 35.790 C 318.800 34.992,318.553 34.731,317.622 34.544 C 316.819 34.384,316.405 34.037,316.322 33.454 C 316.240 32.879,315.869 32.561,315.187 32.482 C 314.601 32.414,314.011 31.992,313.787 31.482 C 313.525 30.886,312.845 30.477,311.688 30.221 C 310.399 29.935,309.918 29.613,309.744 28.921 C 309.568 28.217,309.232 28.000,308.317 28.000 C 307.504 28.000,306.762 27.616,306.000 26.800 C 305.069 25.803,304.568 25.600,303.040 25.600 C 301.535 25.600,301.200 25.469,301.200 24.880 C 301.200 23.994,300.451 23.200,299.615 23.200 C 299.271 23.200,298.812 22.795,298.595 22.300 C 298.269 21.558,297.831 21.379,296.100 21.279 C 294.608 21.193,294.000 20.994,294.000 20.589 C 294.000 19.949,292.020 18.800,290.915 18.800 C 290.516 18.800,290.012 18.395,289.795 17.900 C 289.479 17.179,289.022 16.976,287.502 16.878 C 285.893 16.775,285.568 16.613,285.368 15.816 C 285.089 14.705,284.206 14.413,281.100 14.405 C 278.915 14.400,278.800 14.350,278.800 13.400 C 278.800 12.501,278.639 12.400,277.212 12.400 C 275.911 12.400,275.463 12.183,274.737 11.200 C 273.884 10.046,273.730 10.000,270.753 10.000 C 267.845 10.000,267.648 9.945,267.528 9.100 C 267.419 8.337,267.080 8.161,265.299 7.944 C 263.791 7.760,262.988 7.427,262.453 6.766 C 261.839 6.008,261.222 5.814,258.976 5.671 C 256.839 5.535,256.100 5.318,255.581 4.677 C 255.020 3.984,254.177 3.793,250.158 3.447 C 246.144 3.101,245.296 2.909,244.736 2.218 C 244.167 1.518,243.519 1.380,240.236 1.261 C 237.276 1.154,236.400 0.995,236.400 0.561 C 236.400 0.084,230.976 0.000,200.000 0.000 C 169.024 0.000,163.600 0.084,163.600 0.561 M242.853 91.903 C 244.808 93.197,269.453 118.188,270.129 119.561 C 271.118 121.569,271.169 278.283,270.182 280.692 C 269.758 281.726,265.356 286.412,256.178 295.600 L 242.792 309.000 189.223 309.104 L 135.655 309.209 134.527 308.239 L 133.400 307.269 133.283 228.335 C 133.219 184.921,133.281 148.595,133.421 147.611 C 133.680 145.795,134.142 145.269,143.114 136.600 C 143.342 136.380,144.338 135.390,145.328 134.400 C 146.318 133.410,147.318 132.420,147.549 132.200 C 147.781 131.980,148.832 130.940,149.885 129.888 C 156.377 123.406,158.311 121.600,158.761 121.600 C 159.039 121.600,159.192 121.375,159.100 121.100 C 158.973 120.718,155.703 120.553,145.281 120.400 C 132.866 120.218,131.563 120.135,130.914 119.486 C 129.780 118.351,129.824 93.300,130.962 92.042 L 131.724 91.200 186.762 91.203 C 238.428 91.205,241.865 91.248,242.853 91.903 M166.985 120.898 C 166.687 121.678,166.966 300.699,167.265 300.999 C 167.411 301.144,168.221 300.511,169.065 299.592 C 169.909 298.672,170.834 297.712,171.119 297.460 C 171.405 297.207,171.855 296.766,172.119 296.481 C 172.384 296.195,172.838 295.745,173.129 295.481 C 173.419 295.216,173.937 294.707,174.279 294.350 C 174.620 293.993,175.597 293.002,176.450 292.150 C 178.226 290.374,177.796 290.817,183.578 284.800 L 187.998 280.200 212.357 280.091 C 232.064 280.003,236.801 279.880,237.159 279.449 C 237.480 279.062,237.574 257.149,237.501 199.758 L 237.400 120.600 202.288 120.498 C 174.411 120.417,167.137 120.499,166.985 120.898 " stroke="none" fill="#fcabab" fill-rule="evenodd"></path><path id="path2" d="M130.962 92.042 C 129.824 93.300,129.780 118.351,130.914 119.486 C 131.563 120.135,132.866 120.218,145.281 120.400 C 155.703 120.553,158.973 120.718,159.100 121.100 C 159.192 121.375,159.039 121.600,158.761 121.600 C 158.311 121.600,156.377 123.406,149.885 129.888 C 148.832 130.940,147.781 131.980,147.549 132.200 C 147.318 132.420,146.318 133.410,145.328 134.400 C 144.338 135.390,143.342 136.380,143.114 136.600 C 134.142 145.269,133.680 145.795,133.421 147.611 C 133.281 148.595,133.219 184.921,133.283 228.335 L 133.400 307.269 134.527 308.239 L 135.655 309.209 189.223 309.104 L 242.792 309.000 256.178 295.600 C 265.356 286.412,269.758 281.726,270.182 280.692 C 271.169 278.283,271.118 121.569,270.129 119.561 C 269.453 118.188,244.808 93.197,242.853 91.903 C 241.865 91.248,238.428 91.205,186.762 91.203 L 131.724 91.200 130.962 92.042 M242.051 92.578 C 242.853 92.922,248.676 98.455,256.400 106.212 L 269.400 119.268 269.400 200.195 L 269.400 281.123 256.400 294.187 C 249.250 301.373,242.914 307.510,242.320 307.826 C 241.197 308.423,137.752 308.740,136.218 308.152 C 134.320 307.423,134.400 310.978,134.400 226.917 C 134.400 175.841,134.540 147.707,134.798 146.806 C 135.179 145.480,141.372 139.133,156.165 124.908 C 161.775 119.513,162.438 119.845,145.568 119.600 L 131.823 119.400 131.317 118.400 C 130.511 116.805,130.592 94.762,131.410 93.180 L 132.021 92.000 186.361 92.000 C 232.862 92.000,240.897 92.083,242.051 92.578 M166.489 120.223 L 165.600 120.845 165.600 210.943 C 165.600 280.485,165.710 301.150,166.080 301.520 C 167.026 302.466,168.065 301.960,170.482 299.376 C 171.833 297.932,176.323 293.297,180.460 289.076 L 187.983 281.400 212.275 281.291 C 236.514 281.182,236.570 281.180,237.484 280.321 L 238.400 279.461 238.400 199.944 C 238.400 121.738,238.387 120.421,237.626 120.014 C 236.213 119.257,167.580 119.459,166.489 120.223 M237.501 199.758 C 237.574 257.149,237.480 279.062,237.159 279.449 C 236.801 279.880,232.064 280.003,212.357 280.091 L 187.998 280.200 183.578 284.800 C 177.796 290.817,178.226 290.374,176.450 292.150 C 175.597 293.002,174.620 293.993,174.279 294.350 C 173.937 294.707,173.419 295.216,173.129 295.481 C 172.838 295.745,172.384 296.195,172.119 296.481 C 171.855 296.766,171.405 297.207,171.119 297.460 C 170.834 297.712,169.909 298.672,169.065 299.592 C 168.221 300.511,167.411 301.144,167.265 300.999 C 166.966 300.699,166.687 121.678,166.985 120.898 C 167.137 120.499,174.411 120.417,202.288 120.498 L 237.400 120.600 237.501 199.758 " stroke="none" fill="#845c5c" fill-rule="evenodd"></path><path id="path3" d="M67.217 45.818 C 66.676 46.114,66.089 46.771,65.912 47.278 C 65.594 48.191,65.598 48.192,66.296 47.400 C 66.683 46.960,67.354 46.285,67.786 45.900 C 68.697 45.088,68.578 45.071,67.217 45.818 M332.200 45.883 C 332.640 46.277,333.308 46.960,333.684 47.400 C 334.362 48.193,334.366 48.192,334.139 47.307 C 334.013 46.816,333.345 46.133,332.655 45.790 C 331.439 45.185,331.425 45.188,332.200 45.883 M47.090 65.937 C 46.699 66.091,46.114 66.754,45.789 67.409 L 45.199 68.600 46.022 67.627 C 46.475 67.092,47.151 66.423,47.523 66.140 C 48.273 65.570,48.156 65.515,47.090 65.937 M352.477 66.147 C 352.849 66.426,353.522 67.092,353.973 67.627 L 354.792 68.600 354.189 67.345 C 353.857 66.655,353.184 65.988,352.693 65.865 C 351.897 65.664,351.873 65.695,352.477 66.147 M131.592 92.900 C 131.198 93.712,131.211 93.732,131.722 93.100 C 132.533 92.097,239.757 92.005,242.151 93.005 C 242.948 93.338,243.600 93.521,243.600 93.411 C 243.600 92.041,241.919 92.000,186.365 92.000 L 132.028 92.000 131.592 92.900 M130.977 105.800 C 130.977 112.400,131.032 115.156,131.099 111.925 C 131.166 108.693,131.166 103.293,131.099 99.925 C 131.032 96.556,130.977 99.200,130.977 105.800 M247.400 97.600 C 249.371 99.580,251.073 101.200,251.183 101.200 C 251.293 101.200,249.771 99.580,247.800 97.600 C 245.829 95.620,244.127 94.000,244.017 94.000 C 243.907 94.000,245.429 95.620,247.400 97.600 M253.818 104.018 C 254.908 105.237,255.881 106.176,255.981 106.103 C 256.080 106.031,255.189 105.033,253.999 103.886 L 251.836 101.800 253.818 104.018 M257.600 107.800 C 258.346 108.570,259.047 109.200,259.157 109.200 C 259.267 109.200,258.746 108.570,258.000 107.800 C 257.254 107.030,256.553 106.400,256.443 106.400 C 256.333 106.400,256.854 107.030,257.600 107.800 M260.800 111.000 C 261.546 111.770,262.247 112.400,262.357 112.400 C 262.467 112.400,261.946 111.770,261.200 111.000 C 260.454 110.230,259.753 109.600,259.643 109.600 C 259.533 109.600,260.054 110.230,260.800 111.000 M264.600 114.800 C 265.683 115.900,266.660 116.800,266.770 116.800 C 266.880 116.800,266.083 115.900,265.000 114.800 C 263.917 113.700,262.940 112.800,262.830 112.800 C 262.720 112.800,263.517 113.700,264.600 114.800 M268.048 118.200 C 268.404 118.640,268.795 119.270,268.916 119.600 C 269.103 120.109,269.142 120.104,269.168 119.562 C 269.186 119.211,268.795 118.581,268.300 118.162 C 267.408 117.406,267.406 117.407,268.048 118.200 M131.212 118.220 C 131.175 119.506,132.151 119.600,145.600 119.600 C 155.786 119.600,159.176 119.721,159.601 120.100 C 160.078 120.525,160.082 120.496,159.632 119.900 C 159.146 119.258,157.989 119.200,145.571 119.200 C 133.106 119.200,132.008 119.145,131.632 118.500 C 131.408 118.115,131.219 117.989,131.212 118.220 M166.254 120.029 L 165.200 120.858 165.200 211.215 L 165.200 301.572 166.021 302.011 C 166.472 302.253,167.147 302.370,167.521 302.272 C 168.054 302.131,168.024 302.083,167.380 302.046 C 165.520 301.941,165.600 306.016,165.600 210.929 L 165.600 120.818 166.536 120.205 C 167.363 119.663,171.577 119.604,202.498 119.696 C 221.762 119.753,237.440 119.665,237.338 119.500 C 236.817 118.657,167.341 119.174,166.254 120.029 M238.302 199.710 L 238.404 279.344 237.541 280.263 L 236.677 281.182 212.343 281.291 L 188.009 281.400 185.905 283.595 L 183.800 285.790 185.915 283.795 L 188.030 281.800 212.366 281.691 L 236.703 281.582 237.751 280.610 L 238.800 279.638 238.800 200.043 C 238.800 156.265,238.665 120.364,238.500 120.262 C 238.335 120.160,238.246 155.912,238.302 199.710 M269.396 200.200 C 269.396 244.200,269.443 262.141,269.500 240.068 C 269.557 217.996,269.557 181.996,269.500 160.068 C 269.443 138.141,269.396 156.200,269.396 200.200 M155.191 125.900 L 151.800 129.400 155.300 126.009 C 158.551 122.859,158.982 122.400,158.691 122.400 C 158.631 122.400,157.056 123.975,155.191 125.900 M142.785 138.029 L 141.400 139.258 142.900 138.181 C 144.226 137.230,144.657 136.800,144.285 136.800 C 144.222 136.800,143.547 137.353,142.785 138.029 M139.200 141.400 C 138.228 142.390,137.523 143.200,137.633 143.200 C 137.743 143.200,138.628 142.390,139.600 141.400 C 140.572 140.410,141.277 139.600,141.167 139.600 C 141.057 139.600,140.172 140.410,139.200 141.400 M134.498 226.520 C 134.393 311.051,134.317 307.422,136.218 308.152 C 137.747 308.738,241.196 308.423,242.320 307.828 C 242.914 307.514,245.290 305.309,247.600 302.928 L 251.800 298.600 247.400 302.856 C 244.980 305.197,242.607 307.312,242.126 307.556 C 241.500 307.875,226.440 308.000,188.888 308.000 L 136.524 308.000 135.762 307.158 C 135.019 306.338,134.995 304.283,134.798 226.858 L 134.596 147.400 134.498 226.520 M265.222 284.926 L 263.044 287.400 264.953 285.600 C 266.531 284.112,267.975 282.322,267.514 282.426 C 267.451 282.440,266.420 283.565,265.222 284.926 M181.381 288.100 L 179.800 289.800 181.500 288.219 C 183.081 286.748,183.384 286.400,183.081 286.400 C 183.016 286.400,182.251 287.165,181.381 288.100 M259.600 290.600 C 257.961 292.250,256.710 293.600,256.820 293.600 C 256.930 293.600,258.361 292.250,260.000 290.600 C 261.639 288.950,262.890 287.600,262.780 287.600 C 262.670 287.600,261.239 288.950,259.600 290.600 M175.183 294.500 C 174.440 295.435,174.148 295.946,174.535 295.636 C 175.263 295.051,176.977 292.800,176.694 292.800 C 176.606 292.800,175.926 293.565,175.183 294.500 M253.730 296.409 C 252.591 297.504,251.788 298.400,251.945 298.400 C 252.102 298.400,253.117 297.500,254.200 296.400 C 256.744 293.818,256.417 293.824,253.730 296.409 M169.978 299.900 L 168.600 301.400 170.100 300.022 C 171.496 298.738,171.784 298.400,171.478 298.400 C 171.412 298.400,170.737 299.075,169.978 299.900 M45.790 332.655 C 46.133 333.345,46.816 334.013,47.307 334.139 C 48.192 334.366,48.193 334.362,47.400 333.684 C 46.960 333.308,46.277 332.640,45.883 332.200 C 45.188 331.425,45.185 331.439,45.790 332.655 M353.334 332.961 C 352.370 333.986,352.249 334.260,352.827 334.109 C 353.378 333.965,355.152 331.556,354.669 331.607 C 354.631 331.611,354.030 332.221,353.334 332.961 M65.865 352.693 C 65.988 353.184,66.655 353.857,67.345 354.189 L 68.600 354.792 67.627 353.973 C 67.092 353.522,66.426 352.849,66.147 352.477 C 65.695 351.873,65.664 351.897,65.865 352.693 M332.845 353.421 L 331.490 354.793 332.700 354.190 C 333.547 353.767,335.017 351.730,334.263 352.024 C 334.228 352.038,333.590 352.666,332.845 353.421 " stroke="none" fill="#815454" fill-rule="evenodd"></path><path id="path4" d="M131.696 93.195 C 130.983 94.337,130.986 117.559,131.700 118.521 C 132.149 119.127,133.580 119.206,145.751 119.298 C 162.904 119.427,162.436 119.174,156.365 125.055 C 154.125 127.225,148.402 132.822,143.646 137.492 L 135.000 145.985 134.896 225.934 L 134.792 305.882 135.625 306.941 L 136.458 308.000 188.849 308.000 C 233.571 308.000,241.398 307.916,242.320 307.427 C 242.914 307.111,249.160 301.069,256.200 293.998 L 269.000 281.144 269.000 200.203 L 269.000 119.261 264.400 114.587 C 261.870 112.016,259.018 109.168,258.063 108.256 C 255.363 105.682,244.313 94.505,244.042 94.075 C 242.976 92.379,243.688 92.400,186.447 92.400 C 132.749 92.400,132.187 92.408,131.696 93.195 M243.416 94.600 C 243.719 95.040,244.160 95.580,244.395 95.800 C 244.630 96.020,245.042 96.434,245.311 96.719 C 245.580 97.005,246.038 97.455,246.328 97.719 C 246.619 97.984,247.609 98.981,248.528 99.936 C 250.570 102.055,251.059 102.545,253.264 104.680 C 254.219 105.604,255.180 106.553,255.400 106.789 C 255.620 107.025,256.610 108.016,257.600 108.992 C 259.657 111.020,260.225 111.590,260.911 112.319 C 261.180 112.605,261.638 113.055,261.928 113.319 C 262.503 113.842,265.404 116.836,266.450 117.986 C 266.808 118.379,267.348 118.782,267.650 118.883 C 268.538 119.179,268.671 280.542,267.784 281.282 C 267.442 281.567,266.945 282.035,266.681 282.323 C 266.282 282.757,263.704 285.346,262.365 286.657 C 262.172 286.846,260.750 288.305,259.205 289.900 C 257.659 291.495,256.222 292.800,256.011 292.800 C 255.801 292.800,255.413 293.202,255.151 293.692 C 254.888 294.183,253.937 295.265,253.036 296.096 C 250.861 298.105,251.032 297.936,248.985 300.100 C 247.997 301.145,247.023 302.000,246.821 302.000 C 246.619 302.000,246.343 302.351,246.206 302.780 C 246.070 303.208,245.617 303.667,245.200 303.800 C 244.783 303.933,244.324 304.408,244.182 304.857 C 243.549 306.850,244.981 306.800,188.856 306.800 C 141.470 306.800,136.462 306.740,136.243 306.167 C 135.614 304.529,135.986 146.044,136.619 145.516 C 136.960 145.232,137.455 144.762,137.719 144.471 C 138.304 143.828,139.357 142.772,140.071 142.111 C 140.362 141.842,140.780 141.437,141.000 141.210 C 141.220 140.983,142.255 140.015,143.300 139.059 C 144.345 138.103,145.200 137.113,145.200 136.860 C 145.200 136.607,145.374 136.400,145.587 136.400 C 145.883 136.400,153.767 128.982,155.740 126.848 C 156.074 126.487,157.233 125.318,158.140 124.429 C 158.393 124.181,158.780 123.797,159.000 123.575 C 159.220 123.354,159.713 122.954,160.095 122.686 C 161.243 121.882,161.429 119.829,160.442 118.842 C 159.619 118.019,159.294 118.000,145.847 118.000 L 132.093 118.000 131.852 117.100 C 131.535 115.916,131.528 95.053,131.845 94.227 C 132.274 93.108,242.642 93.477,243.416 94.600 M166.090 118.802 C 163.908 120.132,164.000 116.049,164.002 211.126 C 164.004 298.870,164.060 303.096,165.224 303.815 C 165.707 304.113,169.200 302.826,169.200 302.351 C 169.200 302.163,170.820 300.414,172.800 298.464 C 174.780 296.514,176.400 294.712,176.400 294.459 C 176.400 294.207,176.674 294.000,177.009 294.000 C 177.343 294.000,177.813 293.570,178.053 293.044 C 178.292 292.518,178.903 291.899,179.409 291.668 C 179.916 291.438,180.445 290.887,180.586 290.445 C 180.726 290.003,181.183 289.533,181.600 289.400 C 182.017 289.267,182.462 288.836,182.587 288.440 C 182.713 288.045,183.262 287.518,183.808 287.269 C 184.353 287.021,184.800 286.670,184.800 286.491 C 184.800 286.311,185.548 285.363,186.462 284.382 L 188.123 282.600 213.097 282.400 L 238.070 282.200 239.035 281.078 L 240.000 279.955 240.000 200.254 C 240.000 137.089,239.896 120.425,239.500 119.935 C 237.857 117.905,239.694 118.000,202.211 118.001 C 168.124 118.003,167.373 118.020,166.090 118.802 M237.814 119.846 L 238.800 120.492 238.800 200.065 L 238.800 279.638 237.751 280.610 L 236.703 281.582 212.313 281.691 L 187.924 281.800 177.781 292.184 C 167.939 302.260,167.605 302.556,166.519 302.174 L 165.400 301.781 165.299 211.320 L 165.198 120.859 166.253 120.030 C 167.717 118.878,236.069 118.703,237.814 119.846 " stroke="none" fill="#5c3c3c" fill-rule="evenodd"></path></g></svg>